<?xml version="1.0" encoding="UTF-8"?>
<svg id="Layer_1" data-name="Layer 1" xmlns="http://www.w3.org/2000/svg" viewBox="0 0 1518.75 1518.75">
  <defs>
    <style>
      .cls-1 {
        fill: #fff;
        stroke: #231f20;
        stroke-miterlimit: 10;
        stroke-width: 18.75px;
      }
    </style>
  </defs>
  <circle class="cls-1" cx="759.37" cy="759.37" r="750"/>
  <path d="M1135.86,585.23c-22.5,56.87-40.95,120.62-55.31,191.25h-18.75c3.75-18.13,5.62-35.94,5.62-53.44,0-36.88-10.95-67.18-32.81-90.94-21.88-23.76-55.31-35.63-100.31-35.63-39.38,0-71.1,9.99-95.16,30-24.08,20.01-36.09,49.69-36.09,89.06,0,30.62,9.53,58.74,28.59,84.38,4.93,6.62,10.48,13.56,16.69,20.81,15.19-24.28,30.99-58.86,47.38-103.78h21.56c-4.39,11.89-12.19,37.5-23.44,76.88-5.34,18.67-10.24,38.76-14.66,60.26,11.46,11.62,24.21,23.89,38.25,36.77,26.87,24.38,48.43,45.62,64.69,63.75,16.24,18.13,30,38.12,41.25,60,11.25,21.88,16.88,45.32,16.88,70.31,0,40.63-11.72,74.85-35.16,102.66-23.44,27.81-53.29,48.28-89.53,61.41-36.26,13.13-73.76,19.69-112.5,19.69-33.13,0-59.53-4.07-79.22-12.19-19.69-8.12-37.67-18.43-53.91-30.94-11.89-9.38-23.14-14.06-33.75-14.06-7.5,0-13.76,3.75-18.75,11.25-5.01,7.5-11.57,20.62-19.69,39.38h-18.75c9.99-23.76,19.84-52.35,29.53-85.78,9.67-33.43,21.09-79.84,34.22-139.22h18.75c-5.62,29.38-8.44,52.5-8.44,69.38,0,45.62,12.49,80.94,37.5,105.94,24.99,24.99,63.43,37.5,115.31,37.5,42.49,0,76.09-9.69,100.78-29.06,24.67-19.37,37.03-48.75,37.03-88.12,0-23.76-4.69-45.62-14.06-65.63-9.38-20.01-20.79-37.65-34.22-52.97-13.44-15.32-32.04-34.54-55.78-57.66-17.4-16.54-32.31-31.39-44.68-44.59-38.01-.58-85.05-.88-141.09-.88-120,0-210.32.94-270.94,2.81l4.69-18.75c22.5-1.24,39.21-3.75,50.16-7.5,10.93-3.75,19.84-10.93,26.72-21.56,6.86-10.61,13.43-27.81,19.69-51.56l124.69-465c5.62-19.99,8.44-35.31,8.44-45.94,0-13.12-4.54-21.86-13.59-26.25-9.07-4.37-25.48-7.18-49.22-8.44l4.69-18.75c26.25,1.88,66.24,2.81,120,2.81,50.63,0,90.3-.94,119.06-2.81l-4.69,18.75c-23.14,1.26-40.16,3.75-51.09,7.5-10.95,3.75-19.86,10.95-26.72,21.56-6.88,10.63-13.44,27.82-19.69,51.56l-124.69,465c-5.62,19.39-8.44,34.69-8.44,45.94,0,13.13,4.69,21.73,14.06,25.78,9.37,4.07,25.93,6.09,49.69,6.09h68.44c29.29,0,54.23-3.11,74.78-9.38-10.35-13.84-19.44-29.31-27.28-46.41-10.31-22.5-15.47-47.49-15.47-75,0-38.76,9.84-71.87,29.53-99.38,19.69-27.51,45.3-48.28,76.88-62.34,31.56-14.06,64.84-21.09,99.84-21.09,25.61,0,47.81,3.13,66.56,9.38,18.75,6.24,37.18,16.26,55.31,30,15,11.25,25.31,16.88,30.94,16.88,4.99,0,9.84-3.9,14.53-11.72,4.69-7.82,10.14-20.48,16.41-37.97h18.75Z"/>
</svg>